<svg width="51" height="32" viewBox="0 0 51 32" fill="none" xmlns="http://www.w3.org/2000/svg">
<g id="Maestro" clip-path="url(#clip0)">
<g id="Maestro_2">
<rect id="Rectangle" x="0.698639" width="50" height="32" rx="3" fill="#EDEDF0"/>
<g id="Group">
<g id="Group_2">
<path id="Vector" d="M30.2068 23.863H21.4177V8.13916H30.2068V23.863Z" fill="#6C6BBD"/>
<g id="Group_3">
<path id="Vector_2" d="M21.9808 16C21.9808 12.8104 23.481 9.9691 25.8173 8.13809C24.1088 6.79916 21.9527 6 19.6094 6C14.0619 6 9.56499 10.4771 9.56499 16C9.56499 21.5229 14.0619 26 19.6094 26C21.9527 26 24.1088 25.2008 25.8173 23.8619C23.481 22.0309 21.9808 19.1896 21.9808 16Z" fill="#EB001B"/>
</g>
<g id="Group_4">
<path id="Vector_3" d="M42.0605 16C42.0605 21.5229 37.5637 26 32.0162 26C29.6729 26 27.5167 25.2008 25.8076 23.8619C28.1445 22.0309 29.6448 19.1896 29.6448 16C29.6448 12.8104 28.1445 9.9691 25.8076 8.13809C27.5167 6.79916 29.6729 6 32.0162 6C37.5637 6 42.0605 10.4771 42.0605 16Z" fill="#0099DF"/>
</g>
</g>
<g id="Group_5">
<path id="Vector_4" d="M34.8693 14.2903C35.0131 14.2903 35.2198 14.3176 35.3778 14.3795L35.1577 15.0492C35.0068 14.9874 34.8559 14.967 34.7113 14.967C34.2444 14.967 34.011 15.2674 34.011 15.8073V17.6396H33.2966V14.3724H34.0039V14.7691C34.1894 14.4819 34.4574 14.2903 34.8693 14.2903ZM32.2301 15.0218H31.0629V16.4981C31.0629 16.8259 31.1793 17.045 31.5369 17.045C31.7223 17.045 31.9558 16.9832 32.168 16.8604L32.3739 17.4683C32.1475 17.6255 31.7907 17.7217 31.4818 17.7217C30.637 17.7217 30.3422 17.2703 30.3422 16.5114V15.0218H29.6757V14.3724H30.3422V13.3811H31.0629V14.3724H32.2301V15.0218ZM23.0903 15.7189C23.1665 15.2471 23.4542 14.9255 23.9627 14.9255C24.4225 14.9255 24.718 15.2127 24.7935 15.7189H23.0903ZM25.5354 16.006C25.5283 14.9874 24.8964 14.2903 23.9761 14.2903C23.0149 14.2903 22.3421 14.9874 22.3421 16.006C22.3421 17.0442 23.0424 17.721 24.0248 17.721C24.5192 17.721 24.9719 17.5981 25.3703 17.2633L25.0198 16.7367C24.7455 16.9558 24.395 17.0786 24.0657 17.0786C23.6059 17.0786 23.187 16.8666 23.084 16.2791H25.5212C25.5283 16.1899 25.5354 16.1015 25.5354 16.006ZM28.6729 15.2064C28.474 15.0828 28.0693 14.9255 27.6504 14.9255C27.259 14.9255 27.0255 15.0695 27.0255 15.3089C27.0255 15.5272 27.2723 15.589 27.5812 15.6297L27.9176 15.6774C28.632 15.7807 29.0643 16.0811 29.0643 16.6554C29.0643 17.2774 28.5149 17.7217 27.5678 17.7217C27.0318 17.7217 26.5375 17.5848 26.1461 17.2977L26.4824 16.7438C26.7229 16.9284 27.0806 17.0857 27.5749 17.0857C28.0622 17.0857 28.3231 16.9425 28.3231 16.689C28.3231 16.5052 28.1376 16.4019 27.7462 16.3479L27.4099 16.3002C26.675 16.1969 26.2765 15.8691 26.2765 15.3363C26.2765 14.6869 26.8125 14.2903 27.6433 14.2903C28.1652 14.2903 28.6391 14.4068 28.9818 14.6322L28.6729 15.2064ZM37.4794 14.9654C37.3324 14.9654 37.1964 14.9913 37.0699 15.0421C36.9442 15.0938 36.8349 15.1657 36.743 15.2581C36.651 15.3504 36.5787 15.4615 36.526 15.5906C36.4734 15.7197 36.4474 15.862 36.4474 16.017C36.4474 16.1726 36.4734 16.3143 36.526 16.4433C36.5787 16.5724 36.651 16.6835 36.743 16.7759C36.8349 16.8682 36.9442 16.9402 37.0699 16.9918C37.1964 17.0434 37.3324 17.0685 37.4794 17.0685C37.6264 17.0685 37.7631 17.0434 37.8889 16.9918C38.0154 16.9402 38.1254 16.8682 38.2174 16.7759C38.3109 16.6835 38.3832 16.5724 38.4367 16.4433C38.4893 16.3143 38.5153 16.1726 38.5153 16.017C38.5153 15.862 38.4893 15.7197 38.4367 15.5906C38.3832 15.4615 38.3109 15.3504 38.2174 15.2581C38.1254 15.1657 38.0154 15.0938 37.8889 15.0421C37.7631 14.9913 37.6264 14.9654 37.4794 14.9654ZM37.4794 14.2903C37.734 14.2903 37.9698 14.3341 38.1867 14.4225C38.4037 14.5101 38.5915 14.6314 38.7495 14.7855C38.9082 14.9396 39.0316 15.1219 39.1212 15.3316C39.2108 15.5421 39.2556 15.7705 39.2556 16.017C39.2556 16.2634 39.2108 16.4919 39.1212 16.7023C39.0316 16.912 38.9082 17.0951 38.7495 17.2492C38.5915 17.4033 38.4037 17.5238 38.1867 17.6122C37.9698 17.6998 37.734 17.7437 37.4794 17.7437C37.2247 17.7437 36.989 17.6998 36.772 17.6122C36.5551 17.5238 36.3688 17.4033 36.2117 17.2492C36.0545 17.0951 35.9311 16.912 35.8415 16.7023C35.7519 16.4919 35.7071 16.2634 35.7071 16.017C35.7071 15.7705 35.7519 15.5421 35.8415 15.3316C35.9311 15.1219 36.0545 14.9396 36.2117 14.7855C36.3688 14.6314 36.5551 14.5101 36.772 14.4225C36.989 14.3341 37.2247 14.2903 37.4794 14.2903ZM18.9185 16.006C18.9185 15.4317 19.2966 14.96 19.9143 14.96C20.5046 14.96 20.903 15.4114 20.903 16.006C20.903 16.6006 20.5046 17.0513 19.9143 17.0513C19.2966 17.0513 18.9185 16.5803 18.9185 16.006ZM21.5758 16.006V14.3724H20.8622V14.7691C20.635 14.4749 20.2923 14.2903 19.8255 14.2903C18.9052 14.2903 18.1844 15.0077 18.1844 16.006C18.1844 17.0035 18.9052 17.7217 19.8255 17.7217C20.2923 17.7217 20.635 17.5371 20.8622 17.2429V17.6396H21.5758V16.006ZM17.5525 17.6396V15.589C17.5525 14.8168 17.0582 14.2973 16.262 14.2903C15.8431 14.2832 15.4101 14.4131 15.1083 14.8716C14.8819 14.5093 14.5243 14.2903 14.0229 14.2903C13.6731 14.2903 13.3297 14.3928 13.0617 14.7753V14.3724H12.348V17.6396H13.0687V15.8284C13.0687 15.2612 13.3847 14.96 13.872 14.96C14.3459 14.96 14.5864 15.2674 14.5864 15.8214V17.6396H15.3071V15.8284C15.3071 15.2612 15.6372 14.96 16.1103 14.96C16.5984 14.96 16.8318 15.2674 16.8318 15.8214V17.6396H17.5525Z" fill="white"/>
</g>
</g>
</g>
</g>
<defs>
<clipPath id="clip0">
<rect width="50.2283" height="32" fill="white" transform="translate(0.698639)"/>
</clipPath>
</defs>
</svg>
