<svg width="50" height="32" viewBox="0 0 50 32" fill="none" xmlns="http://www.w3.org/2000/svg">
<rect width="50" height="32" rx="3" fill="#EDEDF0"/>
<path d="M9.82704 14.4726C9.82704 14.1132 10.1881 13.9335 10.6695 13.9335C11.3916 13.9335 12.3543 14.1731 13.0764 14.5924V12.3162C12.2942 12.0167 11.4517 11.837 10.6695 11.837C8.74391 11.837 7.42009 12.8553 7.42009 14.5924C7.42009 17.228 11.0305 16.7488 11.0305 17.9468C11.0305 18.3661 10.6695 18.5458 10.1279 18.5458C9.34565 18.5458 8.3227 18.1864 7.54044 17.7671V20.0433C8.44304 20.4027 9.28547 20.5824 10.1279 20.5824C12.1136 20.5824 13.4375 19.624 13.4375 17.8869C13.4976 15.0117 9.82704 15.5508 9.82704 14.4726ZM24.8103 20.4027H27.2172V12.0167H24.8103V20.4027ZM16.6267 10.04L14.2799 10.5192V18.0666C14.2799 19.5042 15.363 20.5225 16.747 20.5225C17.5293 20.5225 18.131 20.4027 18.4319 20.223V18.3062C18.131 18.426 16.6267 18.8453 16.6267 17.4676V14.0533H18.4319V12.0167H16.6267V10.04ZM21.6813 12.7355L21.6211 12.0167H19.4548V20.4027H21.8618V14.7122C22.4635 13.9934 23.4865 14.1132 23.7873 14.233V12.0167C23.4865 11.8969 22.283 11.7172 21.6813 12.7355ZM24.8103 11.3578L27.2172 10.8786V8.90186L24.8103 9.38106V11.3578ZM43.5845 16.2097C43.5845 13.7538 42.381 11.837 40.0944 11.837C37.8078 11.837 36.4238 13.7538 36.4238 16.2097C36.4238 19.0849 38.0485 20.5225 40.3953 20.5225C41.5386 20.5225 42.381 20.2829 43.0429 19.8636V18.0067C42.381 18.3661 41.6589 18.5458 40.6961 18.5458C39.7334 18.5458 38.9511 18.1864 38.8308 17.0483H43.5243C43.5845 16.9285 43.5845 16.4493 43.5845 16.2097ZM38.8308 15.3112C38.8308 14.233 39.4927 13.8137 40.0944 13.8137C40.6961 13.8137 41.2979 14.233 41.2979 15.3112H38.8308ZM32.5125 11.837C31.5497 11.837 31.0082 12.2563 30.6471 12.6157L30.587 12.0167H28.4207V23.0982L30.8277 22.6789V19.9834C31.1887 20.223 31.6701 20.5824 32.5125 20.5824C34.2576 20.5824 35.8221 19.2047 35.8221 16.1498C35.7619 13.3944 34.1974 11.837 32.5125 11.837ZM31.9108 18.426C31.3692 18.426 31.0082 18.2463 30.7675 17.9468V14.4127C31.0082 14.1132 31.3692 13.9335 31.9108 13.9335C32.8134 13.9335 33.4151 14.8919 33.4151 16.1498C33.4151 17.4676 32.8134 18.426 31.9108 18.426Z" fill="#6974DE"/>
</svg>
