<svg width="51" height="32" viewBox="0 0 51 32" fill="none" xmlns="http://www.w3.org/2000/svg">
<g id="Visa" clip-path="url(#clip0)">
<g id="Visa_2">
<rect id="Rectangle" x="0.0776215" width="50" height="32" rx="3" fill="#EDEDF0"/>
<g id="Group">
<path id="polygon9" d="M22.5443 21.535H19.466L21.3914 10.4995H24.4695L22.5443 21.535Z" fill="#00579F"/>
<path id="path11" d="M33.7032 10.7696C33.0961 10.5463 32.133 10.2998 30.9423 10.2998C27.9024 10.2998 25.7617 11.8024 25.7486 13.9507C25.7233 15.5358 27.2812 16.4161 28.4464 16.9446C29.6374 17.4846 30.0422 17.8371 30.0422 18.3185C30.0301 19.0578 29.0799 19.3986 28.1936 19.3986C26.9646 19.3986 26.3061 19.2229 25.3054 18.8116L24.9 18.6353L24.4693 21.1125C25.1913 21.4174 26.5214 21.6879 27.9024 21.6998C31.1323 21.6998 33.2351 20.2204 33.26 17.9311C33.2723 16.6748 32.4497 15.7122 30.6761 14.9257C29.5995 14.4207 28.9402 14.0802 28.9402 13.5636C28.9528 13.0939 29.4978 12.6129 30.7132 12.6129C31.7139 12.5893 32.4492 12.8123 33.0062 13.0354L33.2846 13.1526L33.7032 10.7696Z" fill="#00579F"/>
<path id="path13" d="M37.7945 17.6255C38.048 16.9916 39.0235 14.5379 39.0235 14.5379C39.0107 14.5614 39.2765 13.8922 39.4285 13.4814L39.6436 14.4322C39.6436 14.4322 40.2265 17.0738 40.3531 17.6255C39.872 17.6255 38.4025 17.6255 37.7945 17.6255ZM41.5942 10.4995H39.2132C38.4789 10.4995 37.9211 10.6989 37.6043 11.4151L33.0319 21.5349H36.2618C36.2618 21.5349 36.7936 20.1728 36.9079 19.8795C37.2622 19.8795 40.4043 19.8795 40.8601 19.8795C40.9485 20.2669 41.2274 21.5349 41.2274 21.5349H44.0776L41.5942 10.4995Z" fill="#00579F"/>
<path id="path15" d="M16.8949 10.4995L13.8802 18.0247L13.5508 16.4985C12.9935 14.7375 11.2455 12.8241 9.29491 11.8728L12.0562 21.5233H15.3114L20.1499 10.4995H16.8949Z" fill="#00579F"/>
<path id="path17" d="M11.0809 10.4995H6.12829L6.07762 10.7225C9.94098 11.6383 12.4996 13.8457 13.5508 16.4989L12.4742 11.4271C12.2969 10.7223 11.7522 10.5228 11.0809 10.4995Z" fill="#FAA61A"/>
</g>
</g>
</g>
<defs>
<clipPath id="clip0">
<rect width="50.2283" height="32" fill="white" transform="translate(0.0776215)"/>
</clipPath>
</defs>
</svg>
